<svg height="606" width="720" xmlns="http://www.w3.org/2000/svg">
<rect height="606" fill="#555" width="720"></rect>
<text fill="#7f7" font-family="Courier New" font-size="12" xml:space="preserve">
<tspan x="10" y="26">7 megabytes installed</tspan>
<tspan x="10" y="42"></tspan>
<tspan x="10" y="58">node_modules</tspan>
<tspan x="10" y="74">└─┬ phpjs@1.3.2 </tspan>
<tspan x="10" y="90">  ├── cli@0.4.4-2 </tspan>
<tspan x="10" y="106">  ├── deep-equal@0.1.2 </tspan>
<tspan x="10" y="122">  ├─┬ glob@3.2.1 </tspan>
<tspan x="10" y="138">  │ ├── graceful-fs@1.2.3 </tspan>
<tspan x="10" y="154">  │ ├── inherits@1.0.2 </tspan>
<tspan x="10" y="170">  │ └─┬ minimatch@0.2.14 </tspan>
<tspan x="10" y="186">  │   ├── lru-cache@2.7.3 </tspan>
<tspan x="10" y="202">  │   └── sigmund@1.0.1 </tspan>
<tspan x="10" y="218">  ├─┬ js-beautify@1.4.2 </tspan>
<tspan x="10" y="234">  │ ├─┬ config-chain@1.1.11 </tspan>
<tspan x="10" y="250">  │ │ ├── ini@1.3.4 </tspan>
<tspan x="10" y="266">  │ │ └── proto-list@1.2.4 </tspan>
<tspan x="10" y="282">  │ ├── mkdirp@0.3.5 </tspan>
<tspan x="10" y="298">  │ └─┬ nopt@2.1.2 </tspan>
<tspan x="10" y="314">  │   └── abbrev@1.1.0 </tspan>
<tspan x="10" y="330">  ├─┬ mocha@1.17.0 </tspan>
<tspan x="10" y="346">  │ ├── commander@2.0.0 </tspan>
<tspan x="10" y="362">  │ ├─┬ debug@2.6.3 </tspan>
<tspan x="10" y="378">  │ │ └── ms@0.7.2 </tspan>
<tspan x="10" y="394">  │ ├── diff@1.0.7 </tspan>
<tspan x="10" y="410">  │ ├─┬ glob@3.2.3 </tspan>
<tspan x="10" y="426">  │ │ ├── graceful-fs@2.0.3 </tspan>
<tspan x="10" y="442">  │ │ └── inherits@2.0.3 </tspan>
<tspan x="10" y="458">  │ ├── growl@1.7.0 </tspan>
<tspan x="10" y="474">  │ └─┬ jade@0.26.3 </tspan>
<tspan x="10" y="490">  │   ├── commander@0.6.1 </tspan>
<tspan x="10" y="506">  │   └── mkdirp@0.3.0 </tspan>
<tspan x="10" y="522">  ├─┬ send@0.1.0 </tspan>
<tspan x="10" y="538">  │ ├── fresh@0.1.0 </tspan>
<tspan x="10" y="554">  │ ├── mime@1.2.6 </tspan>
<tspan x="10" y="570">  │ └── range-parser@0.0.4 </tspan>
<tspan x="10" y="586">  └── underscore@1.5.2</tspan>
</text>
</svg>
